<!-- HTML5 logo -->
<svg xmlns="http://www.w3.org/2000/svg" viewBox="0 0 128 128"><path fill="#E44D26" d="M19.5 114.5L8.1 0h111.8l-11.4 114.5L63.9 128"/><path fill="#F16529" d="M64 117.2l36.8-10.2 9.8-109.7H64"/><path fill="#EBEBEB" d="M64 66.7H47.1l-1.1-12.2H64V42.6H34.7l.3 3.7 3.1 34.7H64v-14.3zm0 29.2l-.1.1-14.7-4-1-11.2H37.9l2 22.2 24 .7.1-.1v-7.7zm0-58.5V29.2h-27l.3 3.7 2.7 30.2H64V37.4z"/><path fill="#fff" d="M64 66.7v12.1h14.7l-1.4 15.7-13.3 3.6v7.7l24-.7 2-22.2h-10.3l.7-7.7H64zm0-29.3v12.1h27.1l.2-2.2.6-6.6.3-3.7H64z"/></svg>
<!-- CSS3 logo -->
<svg xmlns="http://www.w3.org/2000/svg" viewBox="0 0 128 128"><path fill="#1572B6" d="M19.5 114.5L8.1 0h111.8l-11.4 114.5L63.9 128"/><path fill="#33A9DC" d="M64 117.2l36.8-10.2 9.8-109.7H64"/><path fill="#fff" d="M64 66.7H47.1l-1.1-12.2H64V42.6H34.7l.3 3.7 3.1 34.7H64v-14.3zm0 29.2l-.1.1-14.7-4-1-11.2H37.9l2 22.2 24 .7.1-.1v-7.7zm0-58.5V29.2h-27l.3 3.7 2.7 30.2H64V37.4z"/><path fill="#EBEBEB" d="M64 66.7v12.1h14.7l-1.4 15.7-13.3 3.6v7.7l24-.7 2-22.2h-10.3l.7-7.7H64zm0-29.3v12.1h27.1l.2-2.2.6-6.6.3-3.7H64z"/></svg>
<!-- JavaScript logo -->
<svg xmlns="http://www.w3.org/2000/svg" viewBox="0 0 128 128"><path fill="#F7DF1E" d="M1.408 1.408h125.184v125.185H1.408z"/><path d="M116.042 116.042H11.958V11.958h104.084z" fill="#F7DF1E"/><path d="M67.617 104.6c0 7.2-4.2 10.5-10.3 10.5-5.5 0-8.7-2.8-10.3-6.2l5.6-3.4c1.1 2 2.1 3.7 4.5 3.7 2.3 0 3.8-.9 3.8-4.5V74.7h7.7zm17.2 10.5c-6.4 0-10.5-3-12.5-7l5.6-3.2c1.5 2.5 3.5 4.3 7 4.3 2.9 0 4.8-1.4 4.8-3.4 0-2.3-1.9-3.1-5.2-4.4l-1.8-.8c-5.1-2.2-8.5-5-8.5-10.8 0-5.4 4.1-9.5 10.5-9.5 4.6 0 7.9 1.6 10.2 5.7l-5.5 3.5c-1.2-2.2-2.5-3.1-4.7-3.1-2.1 0-3.4 1.3-3.4 3.1 0 2.2 1.3 3 4.3 4.3l1.8.8c6.1 2.6 9.5 5.2 9.5 11.2-.1 6.4-5 10-11.7 10z"/></svg>
<!-- React logo -->
<svg xmlns="http://www.w3.org/2000/svg" viewBox="0 0 128 128"><g><circle fill="#61DAFB" cx="64" cy="64" r="11"/><g stroke="#61DAFB" stroke-width="6" fill="none"><ellipse rx="56" ry="22" cx="64" cy="64"/><ellipse rx="56" ry="22" cx="64" cy="64" transform="rotate(60 64 64)"/><ellipse rx="56" ry="22" cx="64" cy="64" transform="rotate(120 64 64)"/></g></g></svg>
